<?xml version="1.0" encoding="UTF-8"?>
<svg width="73px" height="63px" viewBox="0 0 73 63" version="1.1" xmlns="http://www.w3.org/2000/svg" xmlns:xlink="http://www.w3.org/1999/xlink">
    <!-- Generator: Sketch 41.2 (35397) - http://www.bohemiancoding.com/sketch -->
    <title>Artboard 7</title>
    <desc>Created with Sketch.</desc>
    <defs></defs>
    <g stroke="none" stroke-width="1" fill="none" fill-rule="evenodd">
        <g>
            <g transform="translate(-3.000000, -8.000000)">
                <g>
                    <g transform="translate(13.385382, 10.161355)" fill="#FFFFFF">
                        <path d="M51.5887952,11.000094 C51.6081635,11.1168033 58.6846046,51.5651295 27.0064308,59.5013803 C26.8425288,59.558621 26.6606681,59.5706238 26.4796251,59.5257497 L26.4801707,59.5235219 C-4.75140058,51.7722382 0.918867724,12.4770744 1.13354826,11.0556099 C1.13923141,10.9992784 1.15023398,10.9426742 1.16682882,10.8863887 C1.31127221,10.3970915 1.8251659,10.1175264 2.31446313,10.2619686 L2.31382662,10.2641509 C14.0157056,13.7179669 24.8474297,1.68399716 25.6236978,0.800019181 C25.6628889,0.747279485 25.7082178,0.697949733 25.7597757,0.653075612 C26.1447295,0.318269833 26.7283221,0.358915936 27.0631256,0.743869656 L27.0625346,0.747461415 C27.0949967,0.784833842 38.259666,13.8071745 50.3688259,10.2777065 C50.4197015,10.2597022 50.4728503,10.2457899 50.5280001,10.2366513 C51.0313007,10.1530862 51.5071396,10.4933476 51.5907045,10.9966481 L51.588795,11.000058 L51.5887952,11.000094 Z M48.3110196,14.5114199 C42.6557293,15.2490479 37.0458695,13.2580389 32.2603298,10.1064733 C30.2966438,8.81326273 28.201147,7.15328219 26.372032,5.38895235 C24.4032533,7.25712336 22.0050442,9.06850045 20.0453193,10.2993855 C15.3695335,13.2363053 9.95857938,15.0586416 4.50020849,14.45764 C4.04060045,20.3194232 4.37181475,26.4717816 5.6337933,32.1105234 C8.26950205,43.887119 14.761215,52.523189 26.6380718,55.7468614 C38.4797991,51.9434707 44.9515106,43.0245859 47.4051509,31.0460128 C48.4097507,26.1413075 48.8023412,19.9020261 48.311,14.511339 L48.3110196,14.5114199 Z"></path>
                    </g>
                    <rect x="0" y="0" width="78.835449" height="78.835449"></rect>
                </g>
            </g>
            <text font-family="AvenirNext-Bold, Avenir Next" font-size="38" font-weight="bold" fill="#FFFFFF">
                <tspan x="24.346" y="44">+</tspan>
            </text>
        </g>
    </g>
</svg>