<?xml version="1.0" encoding="UTF-8"?>
<svg width="111px" height="18px" viewBox="0 0 111 18" version="1.1" xmlns="http://www.w3.org/2000/svg" xmlns:xlink="http://www.w3.org/1999/xlink">
    <!-- Generator: sketchtool 41.2 (35397) - http://www.bohemiancoding.com/sketch -->
    <title>E83E599C-A235-455B-829A-809229809F9B</title>
    <desc>Created with sketchtool.</desc>
    <defs></defs>
    <g id="Page-1" stroke="none" stroke-width="1" fill="none" fill-rule="evenodd">
        <g id="Login---Desktop" transform="translate(-702.000000, -574.000000)" fill="#FFFFFF">
            <g id="Group-86" transform="translate(688.000000, 201.000000)">
                <g id="Group-11" transform="translate(14.000000, 373.000000)">
                    <polygon id="Star" points="56.25 14.625 50.5190938 17.6379157 51.6135995 11.2564578 46.977199 6.7370843 53.3845469 5.80604215 56.25 0 59.1154531 5.80604215 65.522801 6.7370843 60.8864005 11.2564578 61.9809062 17.6379157"></polygon>
                    <polygon id="Star-Copy-2" points="32.25 14.625 26.5190938 17.6379157 27.6135995 11.2564578 22.977199 6.7370843 29.3845469 5.80604215 32.25 0 35.1154531 5.80604215 41.522801 6.7370843 36.8864005 11.2564578 37.9809062 17.6379157"></polygon>
                    <polygon id="Star-Copy-4" points="9.75 14.625 4.01909379 17.6379157 5.11359948 11.2564578 0.477198966 6.7370843 6.8845469 5.80604215 9.75 0 12.6154531 5.80604215 19.022801 6.7370843 14.3864005 11.2564578 15.4809062 17.6379157"></polygon>
                    <polygon id="Star-Copy" points="78.75 14.625 73.0190938 17.6379157 74.1135995 11.2564578 69.477199 6.7370843 75.8845469 5.80604215 78.75 0 81.6154531 5.80604215 88.022801 6.7370843 83.3864005 11.2564578 84.4809062 17.6379157"></polygon>
                    <polygon id="Star-Copy-3" points="101.25 14.625 95.5190938 17.6379157 96.6135995 11.2564578 91.977199 6.7370843 98.3845469 5.80604215 101.25 0 104.115453 5.80604215 110.522801 6.7370843 105.886401 11.2564578 106.980906 17.6379157"></polygon>
                </g>
            </g>
        </g>
    </g>
</svg>