<?xml version="1.0" encoding="UTF-8"?>
<svg width="57px" height="57px" viewBox="0 0 57 57" version="1.1" xmlns="http://www.w3.org/2000/svg" xmlns:xlink="http://www.w3.org/1999/xlink">
    <!-- Generator: Sketch 41.2 (35397) - http://www.bohemiancoding.com/sketch -->
    <title>Buddhist Beads</title>
    <desc>Created with Sketch.</desc>
    <defs></defs>
    <g stroke="none" stroke-width="1" fill="none" fill-rule="evenodd">
        <g transform="translate(-770.000000, -5203.000000)" stroke-width="2" stroke="#81C784">
            <g transform="translate(713.000000, 5204.000000)">
                <g>
                    <g>
                        <g transform="translate(58.000000, 0.000000)">
                            <path d="M34,6 C34,9.314 31.314,12 28,12 C24.686,12 22,9.314 22,6 C22,2.686 24.686,0 28,0 C31.314,0 34,2.686 34,6 L34,6 Z"></path>
                            <path d="M34,49 C34,52.314 31.314,55 28,55 C24.686,55 22,52.314 22,49 C22,45.687 24.686,43 28,43 C31.314,43 34,45.687 34,49 L34,49 Z"></path>
                            <path d="M49,33.5 C45.686,33.5 43,30.814 43,27.5 C43,24.187 45.686,21.5 49,21.5 C52.314,21.5 55,24.187 55,27.5 C55,30.814 52.314,33.5 49,33.5 L49,33.5 Z"></path>
                            <path d="M6,33.5 C2.686,33.5 0,30.814 0,27.5 C0,24.187 2.686,21.5 6,21.5 C9.314,21.5 12,24.187 12,27.5 C12,30.814 9.314,33.5 6,33.5 L6,33.5 Z"></path>
                            <path d="M16.893,7.701 C19.237,10.044 19.237,13.844 16.893,16.186 C14.55,18.53 10.751,18.53 8.408,16.186 C6.065,13.844 6.065,10.044 8.408,7.701 C10.751,5.358 14.55,5.358 16.893,7.701 L16.893,7.701 Z"></path>
                            <path d="M47.299,38.107 C49.642,40.45 49.642,44.249 47.299,46.592 C44.956,48.935 41.157,48.935 38.814,46.592 C36.471,44.249 36.471,40.45 38.814,38.107 C41.157,35.764 44.956,35.764 47.299,38.107 L47.299,38.107 Z"></path>
                            <path d="M46.945,16.54 C44.602,18.883 40.803,18.883 38.46,16.54 C36.117,14.197 36.117,10.398 38.46,8.055 C40.803,5.712 44.602,5.712 46.945,8.055 C49.289,10.398 49.289,14.197 46.945,16.54 L46.945,16.54 Z"></path>
                            <path d="M16.54,46.946 C14.197,49.289 10.398,49.289 8.055,46.946 C5.711,44.603 5.711,40.804 8.055,38.46 C10.398,36.117 14.197,36.117 16.54,38.46 C18.883,40.804 18.883,44.603 16.54,46.946 L16.54,46.946 Z"></path>
                            <path d="M43,27.5 C43,24.309 45.494,21.707 48.638,21.518 C48.152,19.855 47.477,18.271 46.628,16.8 C44.271,18.854 40.705,18.784 38.46,16.54 C36.267,14.347 36.154,10.893 38.067,8.536 C36.76,7.842 35.382,7.264 33.933,6.848 C33.52,9.76 31.025,12 28,12 C24.975,12 22.48,9.76 22.067,6.848 C20.523,7.291 19.056,7.911 17.677,8.67 C19.195,10.996 18.936,14.144 16.893,16.186 C14.83,18.25 11.641,18.492 9.308,16.922 C8.47,18.399 7.795,19.982 7.322,21.651 C9.999,22.254 12,24.641 12,27.5 C12,30.361 9.997,32.75 7.317,33.351 C7.744,34.861 8.324,36.307 9.053,37.661 C11.377,36.164 14.506,36.426 16.54,38.46 C18.618,40.538 18.844,43.757 17.236,46.094 C18.741,46.965 20.36,47.662 22.067,48.152 C22.48,45.241 24.975,43 28,43 C31.025,43 33.521,45.242 33.933,48.153 C35.547,47.686 37.087,47.044 38.522,46.234 C36.502,43.877 36.582,40.339 38.814,38.107 C41.023,35.898 44.51,35.799 46.867,37.754 C47.599,36.408 48.205,34.982 48.639,33.482 C45.494,33.294 43,30.692 43,27.5 L43,27.5 Z"></path>
                        </g>
                    </g>
                </g>
            </g>
        </g>
    </g>
</svg>