<?xml version="1.0" encoding="UTF-8"?>
<svg width="69px" height="84px" viewBox="0 0 69 84" version="1.1" xmlns="http://www.w3.org/2000/svg" xmlns:xlink="http://www.w3.org/1999/xlink">
    <!-- Generator: Sketch 41.2 (35397) - http://www.bohemiancoding.com/sketch -->
    <title>Artboard 14</title>
    <desc>Created with Sketch.</desc>
    <defs></defs>
    <g stroke="none" stroke-width="1" fill="none" fill-rule="evenodd">
        <g>
            <g transform="translate(11.000000, 14.000000)">
                <path d="M46,33 C46,45.702 35.703,56 23,56 C10.297,56 0,45.702 0,33 C0,20.298 10.297,10 23,10 C35.703,10 46,20.298 46,33 L46,33 Z" stroke="#81C784" stroke-width="2" stroke-linecap="round" stroke-linejoin="round"></path>
                <path d="M24.04,52.96 C23.51,52.96 23.08,52.55 23.04,52.02 C23.03,51.75 23.12,51.49 23.3,51.29 C23.479,51.1 23.72,50.979 23.99,50.96 C24.64,50.93 25.269,50.859 25.859,50.76 C26.399,50.67 26.92,51.05 27.01,51.59 C27.02,51.649 27.02,51.7 27.02,51.74 C27.02,52.24 26.67,52.66 26.18,52.74 C25.47,52.85 24.77,52.92 24.1,52.96 L24.04,52.96 L24.04,52.96 Z M20.08,52.77 C20.03,52.77 19.979,52.76 19.93,52.76 C19.24,52.649 18.55,52.5 17.88,52.33 C17.62,52.26 17.41,52.1 17.27,51.87 C17.14,51.64 17.1,51.37 17.16,51.109 C17.3,50.59 17.859,50.26 18.39,50.39 C19.01,50.56 19.63,50.689 20.229,50.779 C20.72,50.85 21.08,51.27 21.08,51.76 C21.08,51.809 21.069,51.87 21.069,51.92 C20.99,52.399 20.569,52.77 20.08,52.77 L20.08,52.77 Z M29.85,51.72 L29.85,51.72 C29.439,51.72 29.069,51.46 28.92,51.08 C28.819,50.83 28.83,50.56 28.939,50.309 C29.05,50.069 29.24,49.88 29.49,49.779 C30.09,49.559 30.67,49.3 31.21,49.02 C31.689,48.77 32.319,48.979 32.56,49.45 C32.63,49.58 32.66,49.729 32.67,49.88 C32.68,50.27 32.46,50.62 32.12,50.8 C31.51,51.109 30.87,51.399 30.21,51.649 C30.1,51.7 29.979,51.72 29.85,51.72 L29.85,51.72 Z M14.42,50.95 C14.26,50.95 14.109,50.92 13.97,50.85 C13.33,50.529 12.72,50.18 12.16,49.81 C11.689,49.51 11.56,48.89 11.859,48.42 C12.149,47.979 12.79,47.84 13.24,48.13 C13.75,48.46 14.3,48.77 14.87,49.06 C15.21,49.229 15.43,49.59 15.42,49.97 C15.42,50.13 15.38,50.27 15.31,50.399 C15.14,50.74 14.8,50.95 14.42,50.95 L14.42,50.95 Z M34.99,48.74 C34.689,48.74 34.41,48.6 34.22,48.37 C34.05,48.16 33.97,47.899 34,47.63 C34.03,47.37 34.16,47.13 34.359,46.96 C34.83,46.58 35.29,46.17 35.729,45.729 C35.74,45.72 35.75,45.71 35.76,45.7 C36.14,45.319 36.79,45.319 37.17,45.7 C37.359,45.88 37.47,46.13 37.47,46.399 C37.47,46.67 37.359,46.92 37.18,47.109 C37.16,47.12 37.16,47.13 37.149,47.14 C36.649,47.63 36.14,48.09 35.62,48.51 C35.439,48.66 35.229,48.74 34.99,48.74 L34.99,48.74 Z M9.609,47.479 C9.34,47.479 9.09,47.37 8.899,47.189 C8.89,47.18 8.88,47.16 8.87,47.149 L8.85,47.14 C8.359,46.649 7.89,46.13 7.46,45.59 C7.29,45.38 7.21,45.109 7.24,44.85 C7.269,44.58 7.399,44.35 7.609,44.18 C8.019,43.85 8.68,43.92 9.01,44.33 C9.41,44.819 9.83,45.29 10.269,45.729 L10.31,45.76 C10.5,45.96 10.609,46.21 10.609,46.47 C10.609,46.74 10.5,46.99 10.31,47.18 C10.13,47.37 9.87,47.479 9.609,47.479 L9.609,47.479 Z M38.96,44.309 C38.769,44.309 38.58,44.26 38.41,44.149 C37.95,43.85 37.819,43.229 38.12,42.77 C38.46,42.25 38.769,41.7 39.05,41.14 C39.3,40.66 39.92,40.45 40.399,40.7 C40.74,40.87 40.96,41.229 40.95,41.609 C40.939,41.76 40.91,41.91 40.84,42.04 C40.53,42.66 40.18,43.27 39.8,43.859 C39.609,44.14 39.3,44.309 38.96,44.309 L38.96,44.309 Z M6.069,42.63 C5.689,42.63 5.35,42.42 5.18,42.08 C4.859,41.46 4.58,40.819 4.33,40.17 C4.229,39.92 4.24,39.649 4.35,39.399 C4.46,39.16 4.66,38.97 4.91,38.88 C5.41,38.689 6,38.95 6.2,39.46 C6.42,40.029 6.67,40.609 6.96,41.18 C7.03,41.309 7.069,41.46 7.069,41.609 C7.08,41.99 6.859,42.35 6.519,42.52 C6.38,42.59 6.229,42.63 6.069,42.63 L6.069,42.63 Z M41.359,38.88 C41.27,38.88 41.189,38.87 41.1,38.85 C40.569,38.7 40.25,38.149 40.39,37.62 C40.55,37.02 40.68,36.399 40.78,35.779 C40.859,35.25 41.38,34.859 41.92,34.939 C42.41,35.02 42.76,35.44 42.76,35.939 C42.76,35.979 42.76,36.029 42.75,36.09 C42.649,36.77 42.5,37.46 42.33,38.13 C42.21,38.569 41.81,38.88 41.359,38.88 L41.359,38.88 Z M4.24,36.979 C3.74,36.979 3.33,36.62 3.25,36.13 C3.149,35.46 3.069,34.76 3.03,34.05 C3.02,33.779 3.109,33.529 3.29,33.33 C3.47,33.13 3.72,33.02 3.979,33 C4.51,32.97 5,33.399 5.03,33.95 C5.06,34.55 5.13,35.16 5.229,35.819 C5.24,35.87 5.24,35.92 5.24,35.97 C5.24,36.46 4.88,36.89 4.399,36.96 C4.34,36.97 4.29,36.979 4.24,36.979 L4.24,36.979 Z M41.96,32.97 C41.43,32.97 40.99,32.55 40.96,32.02 C40.93,31.439 40.87,30.819 40.769,30.19 L40.76,30.149 C40.76,30.1 40.75,30.05 40.75,30 C40.75,29.5 41.109,29.08 41.6,29 C42.14,28.92 42.649,29.3 42.74,29.84 L42.74,29.859 C42.85,30.54 42.92,31.229 42.96,31.92 C42.99,32.47 42.56,32.939 42.02,32.97 L41.96,32.97 L41.96,32.97 Z M4.229,31.04 C4.189,31.04 4.14,31.029 4.08,31.02 C3.6,30.95 3.24,30.52 3.24,30.029 C3.24,29.99 3.24,29.95 3.25,29.91 L3.25,29.88 C3.25,29.85 3.26,29.83 3.26,29.8 C3.37,29.149 3.51,28.49 3.68,27.83 C3.819,27.31 4.38,26.979 4.899,27.13 C5.439,27.27 5.76,27.809 5.609,28.35 C5.45,28.97 5.319,29.59 5.229,30.19 C5.149,30.67 4.72,31.04 4.229,31.04 L4.229,31.04 Z M40.72,27.16 C40.31,27.16 39.939,26.899 39.79,26.52 C39.569,25.939 39.31,25.359 39.02,24.8 C38.95,24.66 38.92,24.51 38.91,24.37 C38.91,23.979 39.12,23.62 39.46,23.45 C39.939,23.21 40.559,23.41 40.8,23.89 C41.12,24.51 41.41,25.149 41.66,25.8 C41.75,26.05 41.74,26.319 41.64,26.56 C41.53,26.81 41.33,26.99 41.08,27.09 C40.97,27.13 40.85,27.16 40.72,27.16 L40.72,27.16 Z M6.059,25.38 C5.899,25.38 5.75,25.35 5.609,25.27 C5.27,25.1 5.05,24.74 5.06,24.359 C5.06,24.21 5.1,24.059 5.17,23.93 C5.49,23.29 5.85,22.68 6.22,22.12 C6.51,21.67 7.149,21.529 7.6,21.819 C7.819,21.97 7.979,22.189 8.03,22.45 C8.09,22.71 8.04,22.979 7.89,23.2 C7.559,23.71 7.26,24.24 6.99,24.77 L6.96,24.83 C6.78,25.17 6.439,25.38 6.059,25.38 L6.059,25.38 Z M37.75,22.02 C37.439,22.02 37.16,21.88 36.97,21.649 C36.58,21.17 36.17,20.71 35.729,20.27 L35.71,20.25 C35.519,20.06 35.41,19.81 35.41,19.54 C35.41,19.279 35.519,19.029 35.71,18.84 C36.08,18.46 36.729,18.46 37.109,18.83 L37.12,18.83 C37.12,18.84 37.13,18.84 37.13,18.85 L37.14,18.859 C37.63,19.34 38.09,19.859 38.519,20.39 C38.689,20.59 38.769,20.85 38.74,21.109 C38.71,21.38 38.58,21.62 38.38,21.79 C38.2,21.94 37.979,22.02 37.75,22.02 L37.75,22.02 Z M9.55,20.569 C9.29,20.569 9.04,20.47 8.85,20.279 C8.66,20.09 8.55,19.84 8.55,19.569 C8.55,19.31 8.66,19.06 8.85,18.87 L8.859,18.859 C9.35,18.359 9.87,17.89 10.399,17.47 C10.81,17.13 11.47,17.2 11.8,17.609 C12.149,18.04 12.09,18.67 11.66,19.02 C11.18,19.41 10.71,19.83 10.269,20.27 L10.26,20.279 C10.069,20.47 9.819,20.569 9.55,20.569 L9.55,20.569 Z M33.319,18.05 C33.13,18.05 32.939,17.99 32.78,17.89 C32.27,17.55 31.72,17.24 31.149,16.95 C30.8,16.77 30.59,16.42 30.6,16.04 C30.6,15.89 30.64,15.74 30.71,15.609 C30.96,15.12 31.569,14.92 32.06,15.16 C32.67,15.47 33.28,15.819 33.87,16.21 C34.09,16.35 34.25,16.58 34.3,16.84 C34.359,17.1 34.31,17.37 34.16,17.59 C33.979,17.88 33.66,18.05 33.319,18.05 L33.319,18.05 Z M14.359,17.08 C13.979,17.08 13.64,16.87 13.46,16.529 C13.39,16.399 13.359,16.25 13.359,16.1 C13.35,15.72 13.559,15.359 13.899,15.19 C14.51,14.88 15.149,14.59 15.809,14.34 C16.31,14.14 16.91,14.41 17.109,14.91 C17.2,15.16 17.189,15.43 17.08,15.68 C16.979,15.92 16.78,16.109 16.53,16.2 C15.92,16.439 15.359,16.69 14.81,16.97 C14.67,17.04 14.51,17.08 14.359,17.08 L14.359,17.08 Z M27.89,15.64 C27.809,15.64 27.72,15.63 27.64,15.609 C27.059,15.46 26.439,15.33 25.79,15.22 C25.3,15.149 24.95,14.729 24.95,14.229 C24.95,14.18 24.95,14.13 24.96,14.08 C25.04,13.54 25.55,13.16 26.1,13.25 L26.13,13.25 C26.8,13.359 27.479,13.5 28.149,13.68 C28.68,13.819 29,14.37 28.859,14.899 C28.74,15.34 28.35,15.64 27.89,15.64 L27.89,15.64 Z M20.01,15.24 C19.52,15.24 19.09,14.88 19.019,14.399 C19.01,14.35 19.01,14.309 19.01,14.25 C19,13.75 19.359,13.33 19.85,13.25 C20.54,13.149 21.24,13.069 21.93,13.029 C22.49,13.01 22.95,13.43 22.979,13.979 C23,14.25 22.91,14.5 22.729,14.7 C22.55,14.899 22.3,15.02 22.03,15.029 C21.42,15.069 20.79,15.13 20.16,15.229 C20.109,15.24 20.06,15.24 20.01,15.24 L20.01,15.24 Z" fill="#81C784" fill-rule="evenodd"></path>
                <path d="M28,5 C28,7.761 25.761,10 23,10 C20.239,10 18,7.761 18,5 C18,2.239 20.239,0 23,0 C25.761,0 28,2.239 28,5 L28,5 Z" stroke="#81C784" stroke-width="2" stroke-linecap="round" stroke-linejoin="round"></path>
                <path d="M21,5 L25,5" stroke="#81C784" stroke-width="2" stroke-linecap="round" stroke-linejoin="round"></path>
                <path d="M23,5 L23,10 L23,5 Z M20.704,35.348 L20.704,35.348 C19.602,34.246 19.772,32.413 21.059,31.533 L33.98,21.757 C34.187,21.616 34.437,21.865 34.295,22.072 L24.52,34.994 C23.639,36.28 21.807,36.451 20.704,35.348 L20.704,35.348 Z" stroke="#81C784" stroke-width="2" stroke-linecap="round" stroke-linejoin="round"></path>
            </g>
        </g>
    </g>
</svg>