<?xml version="1.0" encoding="UTF-8"?>
<svg width="47px" height="54px" viewBox="0 0 47 54" version="1.1" xmlns="http://www.w3.org/2000/svg" xmlns:xlink="http://www.w3.org/1999/xlink">
    <!-- Generator: sketchtool 41.2 (35397) - http://www.bohemiancoding.com/sketch -->
    <title>96F57D1E-2780-4FAC-A320-73B07A0E4820</title>
    <desc>Created with sketchtool.</desc>
    <defs></defs>
    <g id="Page-1" stroke="none" stroke-width="1" fill="none" fill-rule="evenodd">
        <g id="Login---Desktop" transform="translate(-1134.000000, -572.000000)" fill="#FFFFFF">
            <g id="Group-86" transform="translate(688.000000, 201.000000)">
                <g id="Group-85">
                    <g id="Group-25" transform="translate(2.000000, 370.000000)">
                        <g id="Group-15" transform="translate(178.000000, 0.500000)">
                            <g id="Group-7" transform="translate(266.000000, 0.000000)">
                                <g id="if_25_-_Shield_2102061" transform="translate(0.000000, 0.500000)">
                                    <path d="M45.8711314,9.84805714 C45.8883823,9.95200766 52.1912194,45.97848 23.9761371,53.0471314 C23.830153,53.0981145 23.6681736,53.1088052 23.5069224,53.0688368 L23.5074083,53.0668525 C-4.30989452,46.1629474 0.740494054,11.1635725 0.931705482,9.89750393 C0.93676735,9.84733073 0.946567105,9.79691448 0.961347779,9.74678222 C1.09000047,9.31097548 1.54771475,9.06197273 1.98352149,9.19062439 L1.98295456,9.19256815 C12.4055717,12.2688093 22.0531603,1.55040586 22.744566,0.763065288 C22.7794726,0.716091151 22.8198461,0.672154179 22.8657677,0.632185745 C23.2086379,0.333981288 23.7284316,0.370183917 24.026634,0.713054088 L24.0261076,0.716253192 C24.0550209,0.749540026 33.9991567,12.3482646 44.7845304,9.20464176 C44.8298442,9.18860572 44.8771828,9.17621431 44.9263036,9.16807481 C45.3745828,9.09364512 45.7984025,9.39670876 45.872832,9.84498796 L45.8711312,9.84802508 L45.8711314,9.84805714 Z M42.9516857,12.9755211 C37.9146377,13.6325109 32.9180537,11.8591611 28.6556743,9.052128 C26.9066606,7.90029257 25.0402457,6.42178286 23.4110914,4.85033143 C21.6575417,6.514272 19.5215074,8.12762743 17.7760217,9.22395086 C13.6113977,11.8398034 8.79197486,13.46292 3.93031886,12.9276206 C3.52095566,18.1485874 3.81596126,23.6283634 4.93997897,28.650672 C7.28754926,39.1398377 13.0695813,46.8318034 23.6480475,49.7030606 C34.1952247,46.3154606 39.9594418,38.3715977 42.1448475,27.7025349 C43.0396234,23.3340171 43.3892955,17.7768206 42.9516682,12.9754491 L42.9516857,12.9755211 Z" id="Shape"></path>
                                    <path d="M34,22 L27,22 L27,15 C27,14.4 26.6,14 26,14 L20,14 C19.4,14 19,14.4 19,15 L19,22 L12,22 C11.4,22 11,22.4 11,23 L11,29 C11,29.6 11.4,30 12,30 L19,30 L19,37 C19,37.6 19.4,38 20,38 L26,38 C26.6,38 27,37.6 27,37 L27,30 L34,30 C34.6,30 35,29.6 35,29 L35,23 C35,22.4 34.6,22 34,22 Z M33,28 L25,28 L25,36 L21,36 L21,28 L13,28 L13,24 L21,24 L21,16 L25,16 L25,24 L33,24 L33,28 Z" id="Shape"></path>
                                </g>
                            </g>
                        </g>
                    </g>
                </g>
            </g>
        </g>
    </g>
</svg>