<?xml version="1.0" encoding="UTF-8"?>
<svg width="78px" height="88px" viewBox="0 0 78 88" version="1.1" xmlns="http://www.w3.org/2000/svg" xmlns:xlink="http://www.w3.org/1999/xlink">
    <!-- Generator: Sketch 41.2 (35397) - http://www.bohemiancoding.com/sketch -->
    <title>bg copy 19</title>
    <desc>Created with Sketch.</desc>
    <defs>
        <path d="M27.221806,0.417859361 C28.1739491,-0.139979371 29.7200441,-0.138593105 30.669821,0.417859361 L56.1676195,15.3564335 C57.1197626,15.9142722 57.891627,17.2562634 57.891627,18.3615501 L57.891627,48.2888034 C57.891627,49.3906447 57.1173964,50.7374675 56.1676195,51.29392 L30.669821,66.2324941 C29.717678,66.7903329 28.1715829,66.7889466 27.221806,66.2324941 L1.7240075,51.29392 C0.77186445,50.7360813 1.0658141e-14,49.39409 9.76996262e-15,48.2888034 L-7.10542736e-15,18.3615501 C-7.99360578e-15,17.2597088 0.774230588,15.912886 1.7240075,15.3564335 L27.221806,0.417859361 Z" id="path-1"></path>
        <filter x="-50%" y="-50%" width="200%" height="200%" filterUnits="objectBoundingBox" id="filter-2">
            <feOffset dx="0" dy="12" in="SourceAlpha" result="shadowOffsetOuter1"></feOffset>
            <feGaussianBlur stdDeviation="5" in="shadowOffsetOuter1" result="shadowBlurOuter1"></feGaussianBlur>
            <feColorMatrix values="0 0 0 0 0   0 0 0 0 0   0 0 0 0 0  0 0 0 0.112743433 0" type="matrix" in="shadowBlurOuter1"></feColorMatrix>
        </filter>
        <filter x="-50%" y="-50%" width="200%" height="200%" filterUnits="objectBoundingBox" id="filter-3">
            <feOffset dx="0" dy="-2" in="SourceAlpha" result="shadowOffsetInner1"></feOffset>
            <feComposite in="shadowOffsetInner1" in2="SourceAlpha" operator="arithmetic" k2="-1" k3="1" result="shadowInnerInner1"></feComposite>
            <feColorMatrix values="0 0 0 0 0   0 0 0 0 0   0 0 0 0 0  0 0 0 0.103345788 0" type="matrix" in="shadowInnerInner1" result="shadowMatrixInner1"></feColorMatrix>
            <feOffset dx="0" dy="1" in="SourceAlpha" result="shadowOffsetInner2"></feOffset>
            <feComposite in="shadowOffsetInner2" in2="SourceAlpha" operator="arithmetic" k2="-1" k3="1" result="shadowInnerInner2"></feComposite>
            <feColorMatrix values="0 0 0 0 1   0 0 0 0 1   0 0 0 0 1  0 0 0 0.5 0" type="matrix" in="shadowInnerInner2" result="shadowMatrixInner2"></feColorMatrix>
            <feMerge>
                <feMergeNode in="shadowMatrixInner1"></feMergeNode>
                <feMergeNode in="shadowMatrixInner2"></feMergeNode>
            </feMerge>
        </filter>
        <polygon id="path-4" points="8.32999703 9.72509526 16.200869 15.023092 22.9177241 5.085528 30.9708051 10.5061722 37.3006187 42.6018863 15.9229453 41.381489"></polygon>
        <path d="M29.9651536,14.0310185 C29.9576865,14.0047242 29.9517751,13.9781131 29.9411967,13.9527692 C29.9299961,13.9252077 29.9147508,13.8998638 29.9004389,13.8738863 C29.8898605,13.8548783 29.8817712,13.83492 29.8696372,13.8165457 C29.8410134,13.7728274 29.8083449,13.7316436 29.7719429,13.6948949 L27.0228124,10.8956608 C26.7191511,10.5861484 26.2263237,10.5861484 25.9229735,10.8956608 C25.6190011,11.2048564 25.6190011,11.7063489 25.9229735,12.0155445 L27.3451414,13.4636318 L19.810545,13.4636318 C19.50035,11.9141689 18.2993944,10.6913256 16.7776654,10.3754772 L16.7776654,2.70356088 L18.1998333,4.15164816 C18.351664,4.30624597 18.5507862,4.38354487 18.7499083,4.38354487 C18.9490305,4.38354487 19.1481527,4.30624597 19.2999833,4.15164816 C19.6039558,3.84245254 19.6039558,3.34096005 19.2999833,3.03176443 L16.5505417,0.232213514 C16.5141397,0.195148055 16.4740041,0.161884182 16.4310684,0.132738693 C16.4124007,0.120066742 16.3921773,0.111513174 16.3728874,0.100742016 C16.347686,0.0868028688 16.3237291,0.071279728 16.2969721,0.0601917703 C16.2714595,0.0494206114 16.2450136,0.0434014344 16.21919,0.0354814646 C16.1967887,0.02882869 16.1750097,0.0199583238 16.1519862,0.015206342 C16.0514917,-0.00506878066 15.947886,-0.00506878066 15.8473915,0.015206342 C15.8240569,0.0199583238 15.802589,0.02882869 15.7801878,0.0354814646 C15.754053,0.0434014344 15.7279182,0.0494206114 15.7024057,0.0601917703 C15.6759598,0.0715965268 15.6516918,0.0868028688 15.6264904,0.100742016 C15.6072004,0.111513174 15.5869771,0.120383541 15.5683094,0.132738693 C15.5253736,0.161884182 15.4852381,0.195148055 15.448836,0.232213514 L12.6997055,3.03144763 C12.3957331,3.34064325 12.3957331,3.84213574 12.6997055,4.15133136 C13.0033669,4.46084378 13.4961942,4.46084378 13.7995444,4.15133136 L15.2217123,2.70324408 L15.2217123,10.3748436 C13.6999833,10.690692 12.4990277,11.9135353 12.1888327,13.4629982 L4.6548586,13.4629982 L6.0770265,12.014911 C6.38099894,11.7057153 6.38099894,11.2042228 6.0770265,10.8950272 C5.77336519,10.5855148 5.28053781,10.5855148 4.97718762,10.8950272 L2.22774599,13.6945781 C2.19134396,13.7316436 2.15867548,13.7725106 2.13005167,13.8162289 C2.11791766,13.83492 2.1095172,13.8548783 2.09924996,13.8742031 C2.08524918,13.9001806 2.07000389,13.9248909 2.05880327,13.9524524 C2.04853603,13.9781131 2.04231346,14.005041 2.03484638,14.0316521 C2.02831268,14.0544616 2.01960109,14.0766375 2.01493416,14.1003974 C1.99502195,14.2027234 1.99502195,14.3082174 2.01493416,14.4105434 C2.01960109,14.4343033 2.02831268,14.4564792 2.03484638,14.4792887 C2.04262459,14.5058998 2.04853603,14.5325109 2.0591144,14.5584884 C2.07031502,14.5857331 2.08556031,14.6107602 2.09924996,14.6364209 C2.10982832,14.6560625 2.11822879,14.6760208 2.1303628,14.6947119 C2.15898661,14.7384302 2.19165509,14.779614 2.22805711,14.8163627 L4.97718762,17.6155968 C5.12901828,17.7701946 5.32814045,17.8474935 5.52726263,17.8474935 C5.7263848,17.8474935 5.92550697,17.7701946 6.07733763,17.6155968 C6.38131007,17.3064012 6.38131007,16.8049087 6.07733763,16.4957131 L4.6548586,15.047309 L12.1891438,15.047309 C12.4993389,16.5967719 13.7002945,17.8196152 15.2220234,18.1354636 L15.2220234,25.8070631 L13.7998555,24.3589758 C13.4961942,24.0494634 13.0033669,24.0494634 12.7000167,24.3589758 C12.3960442,24.6681715 12.3960442,25.169664 12.7000167,25.4788596 L15.4491472,28.2780937 C15.4855492,28.3151591 15.5256848,28.348423 15.5686205,28.3775685 C15.5872882,28.3902405 15.6072004,28.398794 15.6264904,28.4095652 C15.6516918,28.4235043 15.6756486,28.4390275 15.7024057,28.4501154 C15.7279182,28.4608866 15.754053,28.4669058 15.7801878,28.4748257 C15.802589,28.4814785 15.824368,28.4903489 15.8477027,28.4951009 C15.8977943,28.505872 15.9488194,28.5112576 15.9998444,28.5112576 C16.0508695,28.5112576 16.1018945,28.505872 16.1519862,28.4957345 C16.1753209,28.4909825 16.1970998,28.4821121 16.2195011,28.4754593 C16.2453247,28.4678562 16.2717707,28.4615202 16.2972832,28.4510658 C16.3240402,28.4396611 16.3483082,28.4244547 16.3735096,28.4101988 C16.3927996,28.3994276 16.4127118,28.3908741 16.4310684,28.3782021 C16.4743152,28.3490566 16.5144508,28.3157927 16.5505417,28.2787273 L19.2996722,25.4794932 C19.6036446,25.1702976 19.6036446,24.6688051 19.2996722,24.3596094 C18.9960109,24.050097 18.5031835,24.050097 18.1998333,24.3596094 L16.7776654,25.8070631 L16.7776654,18.1354636 C18.2993944,17.8196152 19.50035,16.5967719 19.810545,15.047309 L27.3448303,15.047309 L25.9226624,16.4953963 C25.6186899,16.8045919 25.6186899,17.3060844 25.9226624,17.61528 C26.074493,17.7698778 26.2736152,17.8471767 26.4727374,17.8471767 C26.6718595,17.8471767 26.8709817,17.7698778 27.0228124,17.61528 L29.7719429,14.8160459 C29.8083449,14.7789804 29.8410134,14.7381134 29.8696372,14.6943951 C29.8817712,14.6760208 29.8898605,14.6557457 29.9004389,14.6367377 C29.9144397,14.6107602 29.929685,14.5857331 29.9408856,14.5581716 C29.9511528,14.5325109 29.9570643,14.5058998 29.9648425,14.4796055 C29.9716873,14.4564792 29.9803989,14.4343033 29.9850658,14.4102266 C30.0049781,14.3079006 30.0049781,14.2024066 29.9850658,14.1000806 C29.98071,14.0763207 29.9716873,14.0541448 29.9651536,14.0310185 Z" id="path-6"></path>
        <filter x="-50%" y="-50%" width="200%" height="200%" filterUnits="objectBoundingBox" id="filter-7">
            <feOffset dx="0" dy="1" in="SourceAlpha" result="shadowOffsetOuter1"></feOffset>
            <feGaussianBlur stdDeviation="0.5" in="shadowOffsetOuter1" result="shadowBlurOuter1"></feGaussianBlur>
            <feColorMatrix values="0 0 0 0 0   0 0 0 0 0   0 0 0 0 0  0 0 0 0.112743433 0" type="matrix" in="shadowBlurOuter1"></feColorMatrix>
        </filter>
        <path d="M28.9651536,16.0310185 C28.9576865,16.0047242 28.9517751,15.9781131 28.9411967,15.9527692 C28.9299961,15.9252077 28.9147508,15.8998638 28.9004389,15.8738863 C28.8898605,15.8548783 28.8817712,15.83492 28.8696372,15.8165457 C28.8410134,15.7728274 28.8083449,15.7316436 28.7719429,15.6948949 L26.0228124,12.8956608 C25.7191511,12.5861484 25.2263237,12.5861484 24.9229735,12.8956608 C24.6190011,13.2048564 24.6190011,13.7063489 24.9229735,14.0155445 L26.3451414,15.4636318 L18.810545,15.4636318 C18.50035,13.9141689 17.2993944,12.6913256 15.7776654,12.3754772 L15.7776654,4.70356088 L17.1998333,6.15164816 C17.351664,6.30624597 17.5507862,6.38354487 17.7499083,6.38354487 C17.9490305,6.38354487 18.1481527,6.30624597 18.2999833,6.15164816 C18.6039558,5.84245254 18.6039558,5.34096005 18.2999833,5.03176443 L15.5505417,2.23221351 C15.5141397,2.19514806 15.4740041,2.16188418 15.4310684,2.13273869 C15.4124007,2.12006674 15.3921773,2.11151317 15.3728874,2.10074202 C15.347686,2.08680287 15.3237291,2.07127973 15.2969721,2.06019177 C15.2714595,2.04942061 15.2450136,2.04340143 15.21919,2.03548146 C15.1967887,2.02882869 15.1750097,2.01995832 15.1519862,2.01520634 C15.0514917,1.99493122 14.947886,1.99493122 14.8473915,2.01520634 C14.8240569,2.01995832 14.802589,2.02882869 14.7801878,2.03548146 C14.754053,2.04340143 14.7279182,2.04942061 14.7024057,2.06019177 C14.6759598,2.07159653 14.6516918,2.08680287 14.6264904,2.10074202 C14.6072004,2.11151317 14.5869771,2.12038354 14.5683094,2.13273869 C14.5253736,2.16188418 14.4852381,2.19514806 14.448836,2.23221351 L11.6997055,5.03144763 C11.3957331,5.34064325 11.3957331,5.84213574 11.6997055,6.15133136 C12.0033669,6.46084378 12.4961942,6.46084378 12.7995444,6.15133136 L14.2217123,4.70324408 L14.2217123,12.3748436 C12.6999833,12.690692 11.4990277,13.9135353 11.1888327,15.4629982 L3.6548586,15.4629982 L5.0770265,14.014911 C5.38099894,13.7057153 5.38099894,13.2042228 5.0770265,12.8950272 C4.77336519,12.5855148 4.28053781,12.5855148 3.97718762,12.8950272 L1.22774599,15.6945781 C1.19134396,15.7316436 1.15867548,15.7725106 1.13005167,15.8162289 C1.11791766,15.83492 1.1095172,15.8548783 1.09924996,15.8742031 C1.08524918,15.9001806 1.07000389,15.9248909 1.05880327,15.9524524 C1.04853603,15.9781131 1.04231346,16.005041 1.03484638,16.0316521 C1.02831268,16.0544616 1.01960109,16.0766375 1.01493416,16.1003974 C0.995021946,16.2027234 0.995021946,16.3082174 1.01493416,16.4105434 C1.01960109,16.4343033 1.02831268,16.4564792 1.03484638,16.4792887 C1.04262459,16.5058998 1.04853603,16.5325109 1.0591144,16.5584884 C1.07031502,16.5857331 1.08556031,16.6107602 1.09924996,16.6364209 C1.10982832,16.6560625 1.11822879,16.6760208 1.1303628,16.6947119 C1.15898661,16.7384302 1.19165509,16.779614 1.22805711,16.8163627 L3.97718762,19.6155968 C4.12901828,19.7701946 4.32814045,19.8474935 4.52726263,19.8474935 C4.7263848,19.8474935 4.92550697,19.7701946 5.07733763,19.6155968 C5.38131007,19.3064012 5.38131007,18.8049087 5.07733763,18.4957131 L3.6548586,17.047309 L11.1891438,17.047309 C11.4993389,18.5967719 12.7002945,19.8196152 14.2220234,20.1354636 L14.2220234,27.8070631 L12.7998555,26.3589758 C12.4961942,26.0494634 12.0033669,26.0494634 11.7000167,26.3589758 C11.3960442,26.6681715 11.3960442,27.169664 11.7000167,27.4788596 L14.4491472,30.2780937 C14.4855492,30.3151591 14.5256848,30.348423 14.5686205,30.3775685 C14.5872882,30.3902405 14.6072004,30.398794 14.6264904,30.4095652 C14.6516918,30.4235043 14.6756486,30.4390275 14.7024057,30.4501154 C14.7279182,30.4608866 14.754053,30.4669058 14.7801878,30.4748257 C14.802589,30.4814785 14.824368,30.4903489 14.8477027,30.4951009 C14.8977943,30.505872 14.9488194,30.5112576 14.9998444,30.5112576 C15.0508695,30.5112576 15.1018945,30.505872 15.1519862,30.4957345 C15.1753209,30.4909825 15.1970998,30.4821121 15.2195011,30.4754593 C15.2453247,30.4678562 15.2717707,30.4615202 15.2972832,30.4510658 C15.3240402,30.4396611 15.3483082,30.4244547 15.3735096,30.4101988 C15.3927996,30.3994276 15.4127118,30.3908741 15.4310684,30.3782021 C15.4743152,30.3490566 15.5144508,30.3157927 15.5505417,30.2787273 L18.2996722,27.4794932 C18.6036446,27.1702976 18.6036446,26.6688051 18.2996722,26.3596094 C17.9960109,26.050097 17.5031835,26.050097 17.1998333,26.3596094 L15.7776654,27.8070631 L15.7776654,20.1354636 C17.2993944,19.8196152 18.50035,18.5967719 18.810545,17.047309 L26.3448303,17.047309 L24.9226624,18.4953963 C24.6186899,18.8045919 24.6186899,19.3060844 24.9226624,19.61528 C25.074493,19.7698778 25.2736152,19.8471767 25.4727374,19.8471767 C25.6718595,19.8471767 25.8709817,19.7698778 26.0228124,19.61528 L28.7719429,16.8160459 C28.8083449,16.7789804 28.8410134,16.7381134 28.8696372,16.6943951 C28.8817712,16.6760208 28.8898605,16.6557457 28.9004389,16.6367377 C28.9144397,16.6107602 28.929685,16.5857331 28.9408856,16.5581716 C28.9511528,16.5325109 28.9570643,16.5058998 28.9648425,16.4796055 C28.9716873,16.4564792 28.9803989,16.4343033 28.9850658,16.4102266 C29.0049781,16.3079006 29.0049781,16.2024066 28.9850658,16.1000806 C28.98071,16.0763207 28.9716873,16.0541448 28.9651536,16.0310185 Z" id="path-8"></path>
        <filter x="-50%" y="-50%" width="200%" height="200%" filterUnits="objectBoundingBox" id="filter-9">
            <feOffset dx="0" dy="1" in="SourceAlpha" result="shadowOffsetOuter1"></feOffset>
            <feGaussianBlur stdDeviation="0.5" in="shadowOffsetOuter1" result="shadowBlurOuter1"></feGaussianBlur>
            <feColorMatrix values="0 0 0 0 0   0 0 0 0 0   0 0 0 0 0  0 0 0 0.112743433 0" type="matrix" in="shadowBlurOuter1"></feColorMatrix>
        </filter>
    </defs>
    <g stroke="none" stroke-width="1" fill="none" fill-rule="evenodd">
        <g transform="translate(-501.000000, -859.000000)">
            <g transform="translate(511.000000, 859.000000)">
                <g>
                    <use fill="black" fill-opacity="1" filter="url(#filter-2)" xlink:href="#path-1"></use>
                    <use fill="#FFFFFF" fill-rule="evenodd" xlink:href="#path-1"></use>
                    <use fill="black" fill-opacity="1" filter="url(#filter-3)" xlink:href="#path-1"></use>
                </g>
                <g transform="translate(12.464789, 16.658537)">
                    <g transform="translate(0.000000, 2.000000)">
                        <mask id="mask-5" fill="white">
                            <use xlink:href="#path-4"></use>
                        </mask>
                        <g opacity="0.14" transform="translate(22.815308, 23.843707) rotate(-34.000000) translate(-22.815308, -23.843707) "></g>
                        <g mask="url(#mask-5)">
                            <use fill="black" fill-opacity="1" filter="url(#filter-7)" xlink:href="#path-6"></use>
                            <use fill="#FFFFFF" fill-rule="evenodd" xlink:href="#path-6"></use>
                        </g>
                    </g>
                    <g transform="translate(1.000000, 0.691057)">
                        <polygon fill="#E0E0E0" opacity="0.100000001" transform="translate(22.184337, 23.654423) rotate(-34.000000) translate(-22.184337, -23.654423) " points="9.80369686 7.10905297 14.1190557 8.60184531 21.1434162 5.93157169 27.5185004 3.6744372 34.5649775 43.634408 14.1486374 42.2275327"></polygon>
                        <g>
                            <use fill="black" fill-opacity="1" filter="url(#filter-9)" xlink:href="#path-8"></use>
                            <use fill="#FFFFFF" fill-rule="evenodd" xlink:href="#path-8"></use>
                        </g>
                    </g>
                </g>
            </g>
        </g>
    </g>
</svg>