<?xml version="1.0" encoding="UTF-8"?>
<svg width="78px" height="88px" viewBox="0 0 78 88" version="1.1" xmlns="http://www.w3.org/2000/svg" xmlns:xlink="http://www.w3.org/1999/xlink">
    <!-- Generator: Sketch 41.2 (35397) - http://www.bohemiancoding.com/sketch -->
    <title>bg copy 18</title>
    <desc>Created with Sketch.</desc>
    <defs>
        <path d="M27.221806,0.417859361 C28.1739491,-0.139979371 29.7200441,-0.138593105 30.669821,0.417859361 L56.1676195,15.3564335 C57.1197626,15.9142722 57.891627,17.2562634 57.891627,18.3615501 L57.891627,48.2888034 C57.891627,49.3906447 57.1173964,50.7374675 56.1676195,51.29392 L30.669821,66.2324941 C29.717678,66.7903329 28.1715829,66.7889466 27.221806,66.2324941 L1.7240075,51.29392 C0.77186445,50.7360813 1.0658141e-14,49.39409 9.76996262e-15,48.2888034 L-7.10542736e-15,18.3615501 C-7.99360578e-15,17.2597088 0.774230588,15.912886 1.7240075,15.3564335 L27.221806,0.417859361 Z" id="path-1"></path>
        <filter x="-50%" y="-50%" width="200%" height="200%" filterUnits="objectBoundingBox" id="filter-2">
            <feOffset dx="0" dy="12" in="SourceAlpha" result="shadowOffsetOuter1"></feOffset>
            <feGaussianBlur stdDeviation="5" in="shadowOffsetOuter1" result="shadowBlurOuter1"></feGaussianBlur>
            <feColorMatrix values="0 0 0 0 0   0 0 0 0 0   0 0 0 0 0  0 0 0 0.112743433 0" type="matrix" in="shadowBlurOuter1"></feColorMatrix>
        </filter>
        <filter x="-50%" y="-50%" width="200%" height="200%" filterUnits="objectBoundingBox" id="filter-3">
            <feOffset dx="0" dy="-2" in="SourceAlpha" result="shadowOffsetInner1"></feOffset>
            <feComposite in="shadowOffsetInner1" in2="SourceAlpha" operator="arithmetic" k2="-1" k3="1" result="shadowInnerInner1"></feComposite>
            <feColorMatrix values="0 0 0 0 0   0 0 0 0 0   0 0 0 0 0  0 0 0 0.103345788 0" type="matrix" in="shadowInnerInner1" result="shadowMatrixInner1"></feColorMatrix>
            <feOffset dx="0" dy="1" in="SourceAlpha" result="shadowOffsetInner2"></feOffset>
            <feComposite in="shadowOffsetInner2" in2="SourceAlpha" operator="arithmetic" k2="-1" k3="1" result="shadowInnerInner2"></feComposite>
            <feColorMatrix values="0 0 0 0 1   0 0 0 0 1   0 0 0 0 1  0 0 0 0.5 0" type="matrix" in="shadowInnerInner2" result="shadowMatrixInner2"></feColorMatrix>
            <feMerge>
                <feMergeNode in="shadowMatrixInner1"></feMergeNode>
                <feMergeNode in="shadowMatrixInner2"></feMergeNode>
            </feMerge>
        </filter>
        <polygon id="path-4" points="8.32999703 9.72509526 16.200869 15.023092 22.9177241 5.085528 30.9708051 10.5061722 37.3006187 42.6018863 15.9229453 41.381489"></polygon>
        <path d="M17.0087846,2.0000381 C16.5879825,2.00437873 16.2100482,2.39452957 16.2187947,2.81557079 L16.2187947,4.71293255 C11.7205377,5.09760301 8.12118684,8.69958067 7.73679764,13.2011299 L5.84082183,13.2011299 C5.81312797,13.1997984 5.78535886,13.1997984 5.757665,13.2011299 C5.33962317,13.222833 4.97916501,13.6232762 5.00093781,14.0416279 C5.02271053,14.4599529 5.42278756,14.8207711 5.84082183,14.7989082 L7.73679764,14.7989082 C8.12118684,19.3004473 11.7205377,22.9024346 16.2187947,23.2871056 L16.2187947,25.1844673 C16.2128287,25.6065205 16.5953033,26 17.0171003,26 C17.4388973,26 17.8213705,25.6065205 17.8154059,25.1844673 L17.8154059,23.2871056 C22.3136629,22.9024346 25.9130137,19.3004473 26.2974029,14.7989082 L28.1933787,14.7989082 C28.6151337,14.8047667 29,14.4221255 29,14.0000191 C29,13.5779126 28.6151337,13.1951622 28.1933787,13.2011299 L26.2974029,13.2011299 C25.9130137,8.69958067 22.3136629,5.09760301 17.8154059,4.71293255 L17.8154059,2.81557079 C17.8242697,2.38898262 17.4351298,1.99554568 17.0087846,2.0000381 Z M17.0171003,6.27742382 C21.2885121,6.27742382 24.7340544,9.72548004 24.7340544,14.0000191 C24.7340544,18.2745554 21.2885121,21.7226143 17.0171003,21.7226143 C12.7456884,21.7226143 9.30014611,18.2745554 9.30014611,14.0000191 C9.30014611,9.72548004 12.7456884,6.27742382 17.0171003,6.27742382 Z M17.0171003,11.3370552 C15.5569158,11.3370552 14.3560816,12.5387629 14.3560816,14.0000191 C14.3560816,15.4612672 15.5569158,16.6629829 17.0171003,16.6629829 C18.4772845,16.6629829 19.6781189,15.4612672 19.6781189,14.0000191 C19.6781189,12.5387629 18.4772845,11.3370552 17.0171003,11.3370552 Z M17.0171003,12.9348335 C17.6144117,12.9348335 18.0815077,13.4022636 18.0815077,14.0000191 C18.0815077,14.5977746 17.6144117,15.0652046 17.0171003,15.0652046 C16.4197886,15.0652046 15.9526928,14.5977746 15.9526928,14.0000191 C15.9526928,13.4022636 16.4197886,12.9348335 17.0171003,12.9348335 Z" id="path-6"></path>
        <filter x="-50%" y="-50%" width="200%" height="200%" filterUnits="objectBoundingBox" id="filter-7">
            <feOffset dx="0" dy="1" in="SourceAlpha" result="shadowOffsetOuter1"></feOffset>
            <feGaussianBlur stdDeviation="0.5" in="shadowOffsetOuter1" result="shadowBlurOuter1"></feGaussianBlur>
            <feColorMatrix values="0 0 0 0 0   0 0 0 0 0   0 0 0 0 0  0 0 0 0.1 0" type="matrix" in="shadowBlurOuter1"></feColorMatrix>
        </filter>
        <path d="M15.0087846,4.0000381 C14.5879825,4.00437873 14.2100482,4.39452957 14.2187947,4.81557079 L14.2187947,6.71293255 C9.72053765,7.09760301 6.12118684,10.6995807 5.73679764,15.2011299 L3.84082183,15.2011299 C3.81312797,15.1997984 3.78535886,15.1997984 3.757665,15.2011299 C3.33962317,15.222833 2.97916501,15.6232762 3.00093781,16.0416279 C3.02271053,16.4599529 3.42278756,16.8207711 3.84082183,16.7989082 L5.73679764,16.7989082 C6.12118684,21.3004473 9.72053765,24.9024346 14.2187947,25.2871056 L14.2187947,27.1844673 C14.2128287,27.6065205 14.5953033,28 15.0171003,28 C15.4388973,28 15.8213705,27.6065205 15.8154059,27.1844673 L15.8154059,25.2871056 C20.3136629,24.9024346 23.9130137,21.3004473 24.2974029,16.7989082 L26.1933787,16.7989082 C26.6151337,16.8047667 27,16.4221255 27,16.0000191 C27,15.5779126 26.6151337,15.1951622 26.1933787,15.2011299 L24.2974029,15.2011299 C23.9130137,10.6995807 20.3136629,7.09760301 15.8154059,6.71293255 L15.8154059,4.81557079 C15.8242697,4.38898262 15.4351298,3.99554568 15.0087846,4.0000381 Z M15.0171003,8.27742382 C19.2885121,8.27742382 22.7340544,11.72548 22.7340544,16.0000191 C22.7340544,20.2745554 19.2885121,23.7226143 15.0171003,23.7226143 C10.7456884,23.7226143 7.30014611,20.2745554 7.30014611,16.0000191 C7.30014611,11.72548 10.7456884,8.27742382 15.0171003,8.27742382 Z M15.0171003,13.3370552 C13.5569158,13.3370552 12.3560816,14.5387629 12.3560816,16.0000191 C12.3560816,17.4612672 13.5569158,18.6629829 15.0171003,18.6629829 C16.4772845,18.6629829 17.6781189,17.4612672 17.6781189,16.0000191 C17.6781189,14.5387629 16.4772845,13.3370552 15.0171003,13.3370552 Z M15.0171003,14.9348335 C15.6144117,14.9348335 16.0815077,15.4022636 16.0815077,16.0000191 C16.0815077,16.5977746 15.6144117,17.0652046 15.0171003,17.0652046 C14.4197886,17.0652046 13.9526928,16.5977746 13.9526928,16.0000191 C13.9526928,15.4022636 14.4197886,14.9348335 15.0171003,14.9348335 Z" id="path-8"></path>
        <filter x="-50%" y="-50%" width="200%" height="200%" filterUnits="objectBoundingBox" id="filter-9">
            <feOffset dx="0" dy="1" in="SourceAlpha" result="shadowOffsetOuter1"></feOffset>
            <feGaussianBlur stdDeviation="0.5" in="shadowOffsetOuter1" result="shadowBlurOuter1"></feGaussianBlur>
            <feColorMatrix values="0 0 0 0 0   0 0 0 0 0   0 0 0 0 0  0 0 0 0.1 0" type="matrix" in="shadowBlurOuter1"></feColorMatrix>
        </filter>
    </defs>
    <g stroke="none" stroke-width="1" fill="none" fill-rule="evenodd">
        <g transform="translate(-501.000000, -766.000000)">
            <g transform="translate(511.000000, 766.000000)">
                <g>
                    <use fill="black" fill-opacity="1" filter="url(#filter-2)" xlink:href="#path-1"></use>
                    <use fill="#FFFFFF" fill-rule="evenodd" xlink:href="#path-1"></use>
                    <use fill="black" fill-opacity="1" filter="url(#filter-3)" xlink:href="#path-1"></use>
                </g>
                <g transform="translate(12.464789, 16.658537)">
                    <g transform="translate(0.000000, 2.000000)">
                        <mask id="mask-5" fill="white">
                            <use xlink:href="#path-4"></use>
                        </mask>
                        <g opacity="0.14" transform="translate(22.815308, 23.843707) rotate(-34.000000) translate(-22.815308, -23.843707) "></g>
                        <g mask="url(#mask-5)">
                            <use fill="black" fill-opacity="1" filter="url(#filter-7)" xlink:href="#path-6"></use>
                            <use fill="#FFFFFF" fill-rule="evenodd" xlink:href="#path-6"></use>
                        </g>
                    </g>
                    <g transform="translate(1.000000, 0.691057)">
                        <polygon fill="#E0E0E0" opacity="0.100000001" transform="translate(22.184337, 23.654423) rotate(-34.000000) translate(-22.184337, -23.654423) " points="9.80369686 7.10905297 14.1190557 8.60184531 21.1434162 5.93157169 27.5185004 3.6744372 34.5649775 43.634408 14.1486374 42.2275327"></polygon>
                        <g>
                            <use fill="black" fill-opacity="1" filter="url(#filter-9)" xlink:href="#path-8"></use>
                            <use fill="#FFFFFF" fill-rule="evenodd" xlink:href="#path-8"></use>
                        </g>
                    </g>
                </g>
            </g>
        </g>
    </g>
</svg>